<?xml version="1.0" encoding="UTF-8"?>
<!DOCTYPE svg PUBLIC "-//W3C//DTD SVG 1.1//EN" "http://www.w3.org/Graphics/SVG/1.1/DTD/svg11.dtd">
<!-- Creator: CorelDRAW X6 -->
<svg xmlns="http://www.w3.org/2000/svg" xml:space="preserve" width="4in" height="3.33333in" version="1.1" style="shape-rendering:geometricPrecision; text-rendering:geometricPrecision; image-rendering:optimizeQuality; fill-rule:evenodd; clip-rule:evenodd"
viewBox="0 0 4000 3333"
 xmlns:xlink="http://www.w3.org/1999/xlink">
 <defs>
  <style type="text/css">
   <![CDATA[
    .fil0 {fill:#FEFEFE}
    .fil3 {fill:#0354A3}
    .fil2 {fill:#0354A3;fill-rule:nonzero}
    .fil1 {fill:#1A1A1A;fill-rule:nonzero}
   ]]>
  </style>
 </defs>
 <g id="Layer_x0020_1">
  <metadata id="CorelCorpID_0Corel-Layer"/>
  <polygon class="fil0" points="0,3333 4000,3333 4000,0 0,0 "/>
  <path class="fil1" d="M2320 1255l0 178c16,-16 34,-28 53,-36 19,-8 39,-12 61,-12 47,0 87,18 119,53 33,35 49,81 49,136 0,53 -17,98 -51,134 -34,36 -74,54 -120,54 -21,0 -40,-4 -58,-11 -18,-7 -36,-19 -53,-36l0 38 -90 0 0 -498 90 0zm94 212c-28,0 -52,10 -70,29 -19,19 -28,45 -28,76 0,32 9,58 28,77 19,20 42,30 70,30 28,0 51,-10 69,-30 19,-20 28,-46 28,-77 0,-31 -9,-56 -28,-76 -18,-20 -42,-30 -70,-30zm218 -74l91 0 0 173c0,34 2,57 7,70 5,13 12,23 22,31 10,7 23,11 38,11 15,0 28,-4 38,-11 10,-7 18,-18 23,-31 4,-10 6,-32 6,-66l0 -176 90 0 0 152c0,63 -5,105 -15,129 -12,28 -30,50 -54,65 -24,15 -54,23 -90,23 -39,0 -71,-9 -96,-26 -24,-18 -41,-42 -51,-73 -7,-22 -11,-61 -11,-119l0 -149zm344 0l92 0 93 225 103 -225 92 0 -225 490 -92 0 73 -158 -137 -333z"/>
  <path class="fil2" d="M1220 1385c34,0 66,8 96,25 30,17 53,40 70,69 17,29 25,60 25,94 0,34 -8,65 -25,95 -17,29 -40,52 -69,69 -29,17 -61,25 -96,25 -52,0 -96,-18 -132,-55 -37,-37 -55,-81 -55,-133 0,-56 21,-103 62,-140 36,-32 78,-49 125,-49zm1 84c-28,0 -51,10 -70,29 -19,19 -28,44 -28,75 0,31 9,56 28,76 18,19 42,29 70,29 28,0 52,-10 70,-29 19,-20 28,-45 28,-75 0,-31 -9,-56 -28,-75 -18,-19 -42,-29 -71,-29zm394 -84c34,0 66,8 96,25 30,17 53,40 70,69 17,29 25,60 25,94 0,34 -8,65 -25,95 -17,29 -40,52 -69,69 -29,17 -61,25 -96,25 -52,0 -96,-18 -132,-55 -37,-37 -55,-81 -55,-133 0,-56 21,-103 62,-140 36,-32 78,-49 125,-49zm1 84c-28,0 -51,10 -70,29 -19,19 -28,44 -28,75 0,31 9,56 28,76 18,19 42,29 70,29 28,0 52,-10 70,-29 19,-20 28,-45 28,-75 0,-31 -9,-56 -28,-75 -18,-19 -42,-29 -71,-29zm490 -214l90 0 0 497 -90 0 0 -38c-18,17 -35,29 -53,36 -18,7 -37,11 -58,11 -47,0 -87,-18 -121,-54 -34,-36 -51,-80 -51,-134 0,-55 16,-101 49,-136 33,-35 73,-53 119,-53 22,0 42,4 61,12 19,8 36,20 53,36l0 -178zm-95 212c-28,0 -51,10 -70,30 -18,20 -28,45 -28,76 0,31 9,56 28,77 19,20 42,30 69,30 28,0 52,-10 70,-30 19,-20 28,-45 28,-77 0,-31 -9,-56 -28,-76 -19,-19 -42,-29 -71,-29zm-1087 -73l89 0 0 307c0,61 -12,105 -37,134 -33,39 -82,58 -148,58 -35,0 -65,-4 -89,-13 -24,-9 -44,-22 -61,-39 -17,-17 -29,-38 -37,-62l100 0c9,10 20,18 34,23 14,5 30,8 49,8 24,0 44,-4 59,-11 15,-7 25,-17 31,-29 5,-10 8,-26 9,-49l0 0 0 0c0,-4 0,-8 0,-12l0 0 1 -110 -1 -59 0 -54 51 -18 -51 -57 0 -16zm27 66l-66 23 -66 23 9 -37c-28,0 -51,10 -69,28 -4,4 -8,9 -11,13l-98 -4c8,-29 23,-55 45,-76 32,-31 70,-47 115,-47 14,0 27,2 39,5l8 -33 47 52 47 52zm-45 263c-7,6 -15,10 -22,14l13 -91c1,-1 3,-2 4,-4 6,-6 11,-12 15,-19l-9 100zm-47 23c-8,2 -17,4 -27,5l27 -85c9,-3 18,-6 26,-12l-26 92zm-53 5c-10,0 -20,-2 -30,-4l41 -78c4,0 9,1 13,1 6,0 11,0 17,-1l-42 83zm-54 -11c-10,-4 -19,-9 -29,-15l54 -70c9,5 18,9 29,11l-54 73zm-51 -32c-3,-3 -6,-6 -9,-9 -5,-5 -10,-11 -14,-17l69 -58c4,6 8,11 13,16 2,2 5,4 7,7l-65 61zm-39 -50c-7,-14 -13,-29 -16,-46l85 -31c1,11 4,21 8,30l-77 46zm-20 -75c0,-5 -1,-11 -1,-16 0,-11 1,-22 2,-32l96 -12c-6,13 -9,28 -9,45l-89 16z"/>
  <polygon class="fil3" points="1066,1836 2934,1836 2934,1810 1066,1810 "/>
  <path class="fil1" d="M1197 1927c11,0 20,0 26,1 7,0 12,1 15,3 4,1 6,3 7,5 1,2 2,5 2,9l48 0c0,-11 -1,-21 -4,-29 -3,-8 -8,-14 -15,-19 -7,-5 -17,-8 -30,-10 -13,-2 -29,-3 -49,-3l-42 0c-18,0 -33,1 -45,4 -12,3 -21,7 -27,14 -7,7 -11,16 -14,27 -3,11 -4,25 -4,42l0 30c0,15 1,28 4,38 3,10 8,18 14,24 7,6 16,10 27,12 11,2 26,3 43,3l48 0c19,0 35,-1 47,-3 12,-2 22,-6 29,-12 7,-6 12,-14 15,-24 3,-10 4,-23 4,-39l0 -39 -118 0 0 38 70 0 0 15c0,4 -1,8 -2,11 -1,3 -4,5 -8,7 -4,2 -9,3 -16,3 -7,1 -16,1 -26,1l-38 0c-10,0 -18,-1 -24,-2 -6,-1 -11,-3 -14,-6 -3,-3 -6,-7 -7,-13 -1,-5 -2,-13 -2,-21l0 -20c0,-10 1,-19 2,-25 1,-6 4,-11 8,-14 4,-3 9,-5 15,-6 6,-1 14,-2 24,-2l37 0zm426 -42l0 194 198 0 0 -39 -152 0 0 -42 147 0 0 -39 -147 0 0 -36 152 0 0 -39 -198 0zm611 0l-100 194 54 0 24 -47 118 0 23 47 54 0 -100 -194 -73 0zm39 36l37 72 -77 0 38 -72 2 0zm661 117c0,-12 -2,-20 -5,-26 -3,-5 -7,-9 -13,-11 6,-4 10,-9 12,-15 2,-6 3,-15 3,-26l0 -13c0,-11 -1,-21 -4,-29 -3,-8 -7,-14 -13,-19 -6,-5 -13,-9 -22,-11 -9,-2 -20,-3 -32,-3l-144 0 0 194 47 0 0 -58 92 0c11,0 19,2 24,7 5,4 8,11 8,21l0 30 47 0 0 -40zm-48 -83c0,7 -2,12 -5,15 -3,3 -9,4 -17,4l-100 0 0 -44 99 0c9,0 15,1 18,4 3,3 5,8 5,16l0 4z"/>
 </g>
</svg>
