<?xml version="1.0" encoding="UTF-8" standalone="no"?>
<svg
   xmlns:dc="http://purl.org/dc/elements/1.1/"
   xmlns:cc="http://creativecommons.org/ns#"
   xmlns:rdf="http://www.w3.org/1999/02/22-rdf-syntax-ns#"
   xmlns:svg="http://www.w3.org/2000/svg"
   xmlns="http://www.w3.org/2000/svg"
   viewBox="0 0 384 320"
   height="320"
   width="384"
   xml:space="preserve"
   id="svg2"
   version="1.1"><metadata
     id="metadata8"><rdf:RDF><cc:Work
         rdf:about=""><dc:format>image/svg+xml</dc:format><dc:type
           rdf:resource="http://purl.org/dc/dcmitype/StillImage" /></cc:Work></rdf:RDF></metadata><defs
     id="defs6" /><g
     transform="matrix(1.3333333,0,0,-1.3333333,0,320)"
     id="g10"><g
       transform="scale(0.1)"
       id="g12"><path
         id="path14"
         style="fill:#ffffff;fill-opacity:1;fill-rule:evenodd;stroke:none"
         d="M 0,2400 H 2880 V 0 H 0 v 2400" /><path
         id="path16"
         style="fill:#1a1a1a;fill-opacity:1;fill-rule:nonzero;stroke:none"
         d="m 1670.35,1496.4 v -128.36 c 11.69,11.6 24.33,20.37 37.97,26.21 13.63,5.76 28.23,8.68 43.72,8.68 33.68,0 62.32,-12.74 85.92,-38.13 23.61,-25.47 35.38,-58.1 35.38,-97.93 0,-38.37 -12.17,-70.5 -36.59,-96.31 -24.34,-25.88 -53.23,-38.77 -86.65,-38.77 -14.85,0 -28.72,2.68 -41.54,7.94 -12.82,5.28 -25.56,13.88 -38.21,25.89 v -27.51 h -64.75 v 358.29 z m 67.98,-152.85 c -20.36,0 -37.31,-6.98 -50.71,-20.86 -13.46,-13.95 -20.19,-32.13 -20.19,-54.6 0,-22.96 6.73,-41.55 20.19,-55.66 13.4,-14.2 30.35,-21.26 50.71,-21.26 19.81,0 36.43,7.22 49.98,21.58 13.56,14.45 20.28,32.78 20.28,55.1 0,22.15 -6.64,40.32 -19.95,54.44 -13.23,14.2 -30.02,21.26 -50.31,21.26 z m 156.74,53.06 h 65.72 v -124.3 c 0,-24.18 1.7,-40.97 5.04,-50.39 3.32,-9.41 8.68,-16.71 16.06,-21.99 7.38,-5.18 16.55,-7.78 27.34,-7.78 10.79,0 20.04,2.6 27.58,7.7 7.55,5.12 13.15,12.66 16.8,22.65 2.68,7.46 4.06,23.36 4.06,47.7 v 126.41 h 64.74 v -109.38 c 0,-45.11 -3.57,-75.94 -10.71,-92.57 -8.67,-20.28 -21.57,-35.78 -38.54,-46.64 -16.95,-10.8 -38.53,-16.23 -64.66,-16.23 -28.4,0 -51.28,6.32 -68.8,18.98 -17.52,12.65 -29.86,30.26 -36.99,52.9 -5.12,15.67 -7.64,44.13 -7.64,85.43 z m 247.34,0 h 66.52 l 66.95,-161.87 74.15,161.87 h 66.37 l -161.71,-352.94 h -66.36 l 52.57,113.51 -98.49,239.43" /><path
         id="path18"
         style="fill:#0354a3;fill-opacity:1;fill-rule:nonzero;stroke:none"
         d="m 878.746,1402.96 c 24.406,0 47.363,-6.08 68.863,-18.25 21.567,-12.17 38.286,-28.64 50.364,-49.48 12.087,-20.94 18.087,-43.4 18.087,-67.56 0,-24.34 -6.08,-47.06 -18.165,-68.22 -12.165,-21.18 -28.719,-37.72 -49.641,-49.65 -21.004,-11.92 -44.043,-17.92 -69.266,-17.92 -37.156,0 -68.863,13.14 -95.062,39.42 -26.281,26.37 -39.422,58.33 -39.422,95.87 0,40.32 14.84,73.9 44.527,100.74 26.035,23.37 55.879,35.05 89.715,35.05 z m 0.965,-60.83 c -20.199,0 -36.981,-6.98 -50.363,-20.93 -13.383,-14.03 -20.118,-31.89 -20.118,-53.7 0,-22.39 6.645,-40.55 19.875,-54.43 13.223,-13.86 30.004,-20.84 50.368,-20.84 20.277,0 37.14,7.06 50.695,21.08 13.465,14.04 20.199,32.12 20.199,54.19 0,22.15 -6.652,40.07 -19.875,53.93 -13.219,13.8 -30.179,20.7 -50.781,20.7 z m 283.419,60.83 c 24.41,0 47.37,-6.08 68.87,-18.25 21.56,-12.17 38.28,-28.64 50.36,-49.48 12.09,-20.94 18.09,-43.4 18.09,-67.56 0,-24.34 -6.09,-47.06 -18.17,-68.22 -12.16,-21.18 -28.72,-37.72 -49.64,-49.65 -21,-11.92 -44.04,-17.92 -69.26,-17.92 -37.16,0 -68.87,13.14 -95.07,39.42 -26.28,26.37 -39.42,58.33 -39.42,95.87 0,40.32 14.84,73.9 44.52,100.74 26.04,23.37 55.89,35.05 89.72,35.05 z m 0.97,-60.83 c -20.2,0 -36.99,-6.98 -50.37,-20.93 -13.38,-14.03 -20.12,-31.89 -20.12,-53.7 0,-22.39 6.65,-40.55 19.88,-54.43 13.22,-13.86 30.01,-20.84 50.37,-20.84 20.28,0 37.14,7.06 50.69,21.08 13.47,14.04 20.2,32.12 20.2,54.19 0,22.15 -6.65,40.07 -19.87,53.93 -13.22,13.8 -30.18,20.7 -50.78,20.7 z m 353.09,154.27 h 64.72 v -358.19 h -64.72 v 27.5 c -12.65,-12.01 -25.39,-20.61 -38.13,-25.88 -12.73,-5.27 -26.6,-7.95 -41.44,-7.95 -33.5,0 -62.38,12.89 -86.8,38.77 -24.4,25.8 -36.58,57.92 -36.58,96.28 0,39.82 11.85,72.44 35.46,97.9 23.6,25.39 52.23,38.13 85.96,38.13 15.59,0 30.11,-2.92 43.73,-8.68 13.63,-5.85 26.2,-14.6 37.8,-26.2 z m -68.21,-152.81 c -20.12,0 -36.83,-7.06 -50.06,-21.26 -13.29,-14.12 -19.94,-32.28 -19.94,-54.42 0,-22.32 6.72,-40.64 20.27,-55.08 13.55,-14.36 30.18,-21.58 49.97,-21.58 20.36,0 37.31,7.06 50.69,21.26 13.47,14.1 20.2,32.68 20.2,55.64 0,22.46 -6.73,40.64 -20.2,54.58 -13.38,13.88 -30.41,20.86 -50.93,20.86 z m -782.46,52.54 h 64.14 v -220.8 c 0,-43.58 -8.832,-75.65 -26.406,-96.15 -23.57,-27.78 -59.121,-41.72 -106.676,-41.72 -25.269,0 -46.574,3.16 -63.91,9.49 -17.242,6.31 -31.824,15.62 -43.648,27.94 -11.918,12.23 -20.743,27.13 -26.415,44.7 h 71.692 c 6.316,-7.2 14.5,-12.63 24.535,-16.36 9.965,-3.63 21.789,-5.5 35.484,-5.5 17.497,0 31.504,2.67 42.122,8.02 10.691,5.35 18.14,12.23 22.511,20.65 3.731,7.25 5.871,18.9 6.422,35.02 h 0.004 v 0.08 c 0.094,2.77 0.145,5.68 0.145,8.72 l -0.051,-0.04 0.886,79.52 -0.835,42.7 v 38.64 l 36.894,12.87 -36.894,40.86 z m 19.429,-47.75 -47.367,-16.52 -47.371,-16.53 6.742,26.37 c -20.148,-0.17 -36.828,-6.97 -49.945,-20.41 -2.977,-3.03 -5.617,-6.23 -7.926,-9.61 l -70.43,2.78 c 6.039,21.13 16.805,39.25 32.274,54.37 23.086,22.44 50.535,33.62 82.449,33.62 9.75,0 19.156,-1.18 28.215,-3.52 l 6.113,23.91 33.621,-37.23 z m -32.164,-189.39 c -5.176,-3.97 -10.461,-7.33 -15.847,-10.06 l 9.128,65.36 c 0.938,0.86 1.856,1.75 2.758,2.67 4.156,4.25 7.656,8.93 10.489,14.03 z m -33.765,-16.91 c -6.059,-1.65 -12.446,-2.79 -19.172,-3.42 l 19.765,60.9 c 6.653,1.85 12.793,4.67 18.434,8.43 z m -37.93,-3.89 c -7.449,0.31 -14.645,1.21 -21.586,2.7 l 29.762,56.5 c 3.129,-0.35 6.355,-0.52 9.668,-0.52 4.214,0 8.269,0.29 12.175,0.88 z m -38.985,7.91 c -7.167,2.78 -14.027,6.29 -20.574,10.51 l 39.164,50.3 c 6.309,-3.84 13.188,-6.57 20.633,-8.21 z m -36.515,22.81 c -2.305,2.09 -4.567,4.28 -6.777,6.58 -3.665,3.81 -7.047,7.78 -10.149,11.9 l 49.402,41.68 c 2.661,-4.18 5.805,-8.08 9.434,-11.71 1.652,-1.66 3.359,-3.22 5.121,-4.68 z m -27.801,35.72 c -5.316,10.21 -9.215,21.21 -11.691,33 l 61.476,22.03 c 0.887,-7.88 2.821,-15.18 5.809,-21.88 z m -14.559,54.17 c -0.246,3.75 -0.375,7.57 -0.375,11.46 0,8.1 0.5,15.89 1.497,23.36 l 69.445,8.84 c -4.504,-9.58 -6.762,-20.32 -6.789,-32.23 L 464.23,1258.8" /><path
         id="path20"
         style="fill:#0354a3;fill-opacity:1;fill-rule:evenodd;stroke:none"
         d="M 2112.41,1078.02 H 767.219 v 18.99 H 2112.41 v -18.99" /><path
         id="path22"
         style="fill:#1a1a1a;fill-opacity:1;fill-rule:nonzero;stroke:none"
         d="m 862.07,1012.92 c 7.903,0 14.235,-0.17 18.993,-0.51 4.757,-0.33 8.437,-0.96 11.05,-1.9 2.61,-0.94 4.387,-2.25 5.325,-3.92 0.933,-1.68 1.406,-3.86 1.406,-6.53 h 34.562 c 0,8.17 -1.035,15.07 -3.113,20.7 -2.074,5.62 -5.793,10.11 -11.152,13.46 -5.36,3.35 -12.594,5.76 -21.703,7.23 -9.11,1.48 -20.766,2.21 -34.965,2.21 h -30.547 c -13.129,0 -23.879,-0.97 -32.25,-2.91 -8.375,-1.94 -14.973,-5.29 -19.797,-10.04 -4.82,-4.76 -8.141,-11.16 -9.949,-19.2 -1.809,-8.03 -2.711,-18.151 -2.711,-30.338 v -21.703 c 0,-10.992 1.008,-20.102 3.015,-27.336 2.008,-7.235 5.457,-12.961 10.348,-17.176 4.891,-4.223 11.422,-7.172 19.598,-8.844 8.168,-1.675 18.484,-2.511 30.945,-2.511 h 34.762 c 13.664,0 24.851,0.8 33.558,2.41 8.711,1.609 15.575,4.484 20.598,8.64 5.027,4.153 8.508,9.852 10.453,17.086 1.942,7.235 2.91,16.543 2.91,27.93 v 27.93 h -85 v -27.129 h 50.637 V 950.02 c 0,-3.215 -0.465,-5.895 -1.402,-8.036 -0.938,-2.144 -2.782,-3.82 -5.528,-5.027 -2.75,-1.207 -6.562,-2.039 -11.453,-2.512 -4.89,-0.468 -11.222,-0.703 -18.992,-0.703 H 834.34 c -7.238,0 -13.063,0.438 -17.485,1.305 -4.421,0.875 -7.839,2.414 -10.25,4.625 -2.41,2.207 -4.015,5.293 -4.824,9.242 -0.801,3.953 -1.203,9.078 -1.203,15.375 v 14.672 c 0,7.5 0.5,13.492 1.508,17.984 1.004,4.485 2.812,7.905 5.426,10.245 2.609,2.35 6.195,3.88 10.75,4.62 4.554,0.74 10.383,1.11 17.484,1.11 z m 306.86,30.14 V 903.602 h 142.67 v 27.929 h -109.31 v 30.141 h 105.89 v 27.937 h -105.89 v 25.721 h 109.31 v 27.73 z m 439.68,0 -71.93,-139.458 h 38.98 l 17.08,33.562 h 84.6 l 16.88,-33.562 h 39.19 l -71.95,139.458 z m 27.74,-26.12 26.52,-51.846 h -55.66 l 27.53,51.846 z m 476.06,-84.401 c 0,8.305 -1.11,14.434 -3.32,18.383 -2.21,3.953 -5.26,6.664 -9.14,8.141 4.41,2.816 7.36,6.5 8.84,11.05 1.47,4.559 2.21,10.785 2.21,18.692 v 9.644 c 0,8.031 -0.94,14.911 -2.81,20.601 -1.88,5.69 -4.89,10.31 -9.05,13.86 -4.15,3.55 -9.44,6.13 -15.88,7.74 -6.42,1.61 -14.13,2.41 -23.1,2.41 H 1956.67 V 903.602 h 33.55 v 41.597 h 65.92 c 7.77,0 13.49,-1.609 17.18,-4.824 3.68,-3.211 5.52,-8.242 5.52,-15.074 v -21.699 h 33.57 z m -34.77,59.883 c 0,-5.223 -1.18,-8.879 -3.52,-10.953 -2.34,-2.074 -6.46,-3.114 -12.35,-3.114 h -72.15 v 31.345 h 71.34 c 6.3,0 10.65,-1.04 13.06,-3.11 2.41,-2.08 3.62,-5.86 3.62,-11.356 v -2.812" /></g></g></svg>